<?xml version="1.0" encoding="UTF-8"?>
<svg xmlns="http://www.w3.org/2000/svg" viewBox="0 0 124.67 215.98">
  <defs>
    <style>
      .cls-1 {
        fill: #fff;
        stroke: #fff;
        stroke-linecap: round;
        stroke-linejoin: round;
        stroke-width: 4px;
      }
    </style>
  </defs>
  <g id="BACKGROUND_ICON_EDITABLE_STROKE" data-name="BACKGROUND ICON EDITABLE STROKE">
    <g>
      <path d="M15.55,205.74c.05,0,.11-.01.16-.02h0s-.17.02-.17.02Z"/>
      <path class="cls-1" d="M95.82,104.32c.05-3.37-.78-6.59-3.1-11.28-1.11-1.65-1.79-3.41-3.06-6.01-.79-2.56-.75-2.23-1.01-3.82-1.16-3.81-1.03-4.4-3.41-7.65-.36-.59-.86-1.1-.88-1.81,2.63-3.18,2.37-7.65-1.78-9.35-.49-.3-1-.57-1.52-.8.2-.3.37-.64.48-1.02.01-.06.03-.12.04-.19,2.98.58,5.89.98,8.36,1.19-.93,1.63-.61,3.83-.2,5.59.45,1.36,2.08,1.65,3.32,1.87,1.79-.19,3.98-.64,4.81-2.43.61-1.58,1.54-3.6,1.23-5.34,4.76-.71,10.93-2.21,12.23-4.95.58.09,1.18.08,1.79-.04,3.33-.69,7.22-2.08,8.52-5.54,1.57-3.88-1.98-8.17-6.02-7.95-1.74-.01-3.65.57-4.79,1.9-2.06-2.44-8.48-4.75-10.09-5.44-2.28-.76-4.72-1.3-7.15-1.9,1.97-3.09,4.35-7.01,2.89-10.61-.41-.54-.83-.68-1.27-.55,0-.84-.48-1.67-1.54-1.74-3.99-.33-7.99.06-12,.31-1.05-1.06-2.23-2.02-2.72-2.57-.08-.07-.17-.14-.25-.21,3.49-6.48,3.13-16.11-3.77-19.99-6.82-3.88-15.42,1.26-14.76,9.21.03.38.06.84.11,1.36-2.75-.18-5.51.07-8.23.54-.55.03-1.02.19-1.43.43-2.3-3.64-6.06-6.52-9.94-7.73-16.71-4.55-24.85,12.77-15.26,25.35,1.98,2.63,4.32,4.95,6.94,6.93,1.05.8,2.19,1.76,3.54,1.83-.41.93-.91,1.78-1.65,2.48-1.54.66-3.02,1.51-3.74,3.11-1.21,1.53-.62,5.78,1.22,5.89-.1.12-.19.25-.28.37-1.88,2.39-5.17,13.99-.81,14.65.14-.07.26-.15.38-.24.3,1.09,1.49,1.49,2.54,1.72,1.74.59,3.56.92,5.38,1.12,1.29.46,2.63.86,3.82.42.28.09.54.23.76.44-.57,2.46-2.55,4.14-3.54,6.39-1.18,3.1,2.06,5.55,4.41,6.93,3.33,2.2,6.33,4.8,9.38,7.37.73.68,1.58,1.16,2.39,1.72.07.06.14.1.21.15.17.55.33,1.09.48,1.63-1.83-1.53-4.14-2.64-5.97-4.03-4.28-2.81-8.34-6.1-12.09-9.53-1.13-1.29-2.8-2.59-3.21-4.23.55-2.21,5.01-4.12,2.61-6.53-.66-.44-1.72-.28-2.41-.35-2.46-.21-4.82-.91-7.04-1.9-1.52-.96-1.15-2.97-1.63-4.48-.27-.77-.84-.98-1.34-.8,0-.01,0-.03-.01-.05-1.22-4.46-9.92,3.16-11.43,4.97-1.73,2.17-3.43,4.44-4.9,6.82-.01-3.16-.01-6.33-.07-9.5-.07-4.09-.18-8.17-.24-12.26-.07-5.54-.1-11.07-.05-16.6.03-2.82.02-5.63.03-8.45,0-3.19-.09-6.37-.25-9.22-.07-1.35-.16-2.71-.23-3.99-.08-1.41-.17-2.83-.31-4.23-.07-.69-.09-1.72-.71-2.17-.04-.1-.09-.2-.16-.28-.02-.09-.04-.17-.07-.25,0,0,0,0,0,0-.08-.18-.3-.27-.4,0-.03.08-.05.16-.07.25-.07.08-.12.18-.17.29-.31.22-.46.6-.56.99-.21.89-.23,1.84-.31,2.75-.18,2.12-.3,4.24-.4,6.03-.03.61-.07,1.22-.08,1.48-.13,2.19-.22,4.37-.24,6.57-.02,1.81-.01,3.62-.04,5.43-.05,3.54.01,7.08-.01,10.62-.05,7.87-.24,15.75-.44,23.62-.2,7.99-.18,15.98-.1,23.97-.37,2.99-.4,6.07.09,9.02.02,2.04.02,4.08,0,6.12-.03,4.95-.18,9.9-.26,14.85-.07,4.01-.13,8.03-.12,12.05,0,4.44.06,8.88.16,13.32.18,8.7.42,17.41.37,26.11-.02,4.12-.07,8.23-.19,12.34-.03,1.18.71,2.72,2.05,2.72s2.09-1.54,2.07-2.71c-.19-8.76-.14-17.53.08-26.3.21-8.66.52-17.32.57-25.99.04-7.49-.15-14.98-.21-22.47.07.08.14.17.22.26,2.94,3.27,8.63,8.28,13.44,8.04h0s.08.04.12.06c.18.06.35.12.53.18,0,.08,0,.16,0,.24-.19,3.73,3.16,6.48,5.58,8.93,1.09.73,2.25,1.25,3.46,1.61-.02.28.03.55.06.76.34,2,1.03,3.91,1.7,5.81-8.14,4.38-11.54,14.64-11.92,23.42-.34,7.18,2.51,14.37,2.84,21.4.96,6.65-4.49,12.71-10.61,14.51-1.97.61-8.42,1.02-10.21,1.37-1.48.61-2.07,2.55-1.72,4.02,1.81,4.85,8.49,5.48,13.01,5.1,5.47-.66,11.43-1.43,15.87-4.89,10.94-11.26,6.84-28.46,5.21-42.42-.19-2.84.62-6.49,3.94-6.91.52-.13.94-.42,1.25-.8,2.15,2.75,4.55,5.31,6.77,8,1.13,1.43,2.35,2.81,3.58,4.15-4.25,1.06-7.85,3.05-7.31,8.61-.6,2.2,1.9,16.22,5.29,27.03-1.47.02-2.99.41-4.37.68-3.85.73-11.89,2.38-9.8,7.87,1.89,3.07,5.98,3.02,9.11,3.85,3.98,1.81,8.27,2.26,12.58,2.44,4.06-.53,8.96-1.02,10.9-5.22.96-1.92,1.53-3.64,1.53-5.74.2-1.01.34-2.05.44-3.1-.05,2.39.24,4.75,1.81,6.56.57.83,1.52,1.35,2.44,1.66,3.1,2.06,6.74,3.17,10.42,3.51,6.03.98,12.21,1.17,18.32,1.22,3.65-.2,7.28-.27,10.7-1.65,8.14-4.17,5.11-10.54-.26-15.59-2.06-1.51-4.43-2.66-6.82-3.53-1.07-.18-3.25-.51-4.44-.01-.59-1.38-2.48-2.29-3.69-3-1.68-.87-2.98-2.08-4.5-3.09-.72-.5-1.4-1.17-2.12-1.75-.01-1.07-.48-1.9-.84-2.84,1.18-.51,1.74-1.76,1.55-2.95-.02-.45-.37-.84-.46-1.23-.23-1.46-.97-2.7-1.53-4.02-.56-1.18-.97-2.63-1.78-3.68,2.96-2.03,5.8-4.26,8.41-6.77,9.43-7.2,10-13.7,3.76-23.48-2.25-3.81-4.53-7.6-7.21-11.12-1.54-2.19-3.45-5.21-6.55-4.58-1.93.42-4.17-.5-5.26-2.08-.66-1.52.26-3.1.46-4.59.28.71.59,1.41.92,2.1,0,.53.2,1.05.62,1.41.74.71,1.82.62,2.77.57,4.15,0,5.24-2.79,6.69-6.57.94-3.2,1.5-4.55,1.67-7.07l.02-2.4ZM115.46,53.53s.05.03.09.04c-.03.01-.06.03-.09.04v-.08ZM111.89,49.38s.03,0,.04-.01c0,.01,0,.02,0,.03-.01-.01-.03-.01-.05-.02ZM54.29,87.47s.05-.06.06-.1c.02.07.04.14.06.21-.04-.03-.08-.08-.12-.12ZM70.32,71.63s0,0,.01-.01c0,0,0,.01,0,.03,0,0-.01-.01-.01-.01ZM35.21,65.32c.04-.1.08-.19.11-.29.03.08.07.15.1.22-.08.02-.15.05-.21.07ZM82.92,78.57s-.08-.08-.12-.12c.01-.01.02-.03.03-.05.04.06.06.11.1.17ZM85.55,84.39c.02.06.05.12.08.19-.03-.02-.06-.03-.1-.06,0,0-.02,0-.03,0,.02-.04.04-.08.05-.12ZM90.91,112.26s.06.03.08.04c-.02.04-.03.08-.04.12-.01-.06-.03-.11-.04-.17ZM87.62,114.25s.02.04.03.06c0,0,0,.01-.01.02,0-.03-.01-.06-.01-.08ZM70.95,195.12c.02-.68.03-1.35.03-2.01.05.63.06,1.26-.03,1.88,0,.04,0,.09,0,.13Z"/>
    </g>
  </g>
  <g id="ICON">
    <g>
      <path d="M43.01,23.89c-1.13-2.12-3.65-3.44-6-3.69-2.23-.35-4.05.9-5.93,1.79-1.87.36-2.77-1.9-2.55-3.37,1.02-4.59,7.58-5.2,11.24-3.58,3.27,1.31,5.05,4.43,5.85,7.71.37,1.72.87,3.89-.17,5.44-1.46,1.13-1.73-3.48-2.44-4.3Z"/>
      <path d="M86.78,49.55c1.76-.17,2.56,2.1,1.4,3.3-1.63,1.29-3.35,2.75-5.34,3.39-1.96.21-2.61-2.59-1.64-3.94,1.3-1.63,3.47-2.75,5.58-2.75Z"/>
      <path d="M90.06,55.08c2.48-1.08,4.86-3.41,7.76-2.66.15.07.8.57.54.64-1.36,2.57-5.11,3.23-7.6,4.45-1.33.37-1.7-1.85-.7-2.43Z"/>
      <path d="M65.97,100.39c2.46,1.4,4.67,3.49,7.31,4.72,1.38.33,2.17,2.31.48,2.85-3.44-.41-6.62-2.82-8.88-5.33-.47-.81-.01-2.4,1.09-2.24Z"/>
      <path d="M15.55,205.74c.05,0,.11-.01.16-.02h0s-.17.02-.17.02Z"/>
      <path d="M99.37,91.52,94.77,97.83c-1.85-4.88-4.78-9.54-5.03-11.12-1.16-3.81-2.11-7.9-4.5-11.15-.36-.59-.86-1.1-.88-1.81,2.63-3.18,2.37-7.65-1.78-9.35-.49-.3-1-.57-1.52-.8.2-.3.37-.64.48-1.02.01-.06.03-.12.04-.19,2.98.58,5.89.98,8.36,1.19-.93,1.63-.61,3.83-.2,5.59.45,1.36,2.08,1.65,3.32,1.87,1.79-.19,3.98-.64,4.81-2.43.61-1.58,1.54-3.6,1.23-5.34,4.76-.71,10.93-2.21,12.23-4.95.58.09,1.18.08,1.79-.04,3.33-.69,7.22-2.08,8.52-5.54,1.57-3.88-1.98-8.17-6.02-7.95-1.74-.01-3.65.57-4.79,1.9-2.06-2.44-8.48-4.75-10.09-5.44-2.28-.76-4.72-1.3-7.15-1.9,1.97-3.09,4.35-7.01,2.89-10.61-.41-.54-.83-.68-1.27-.55,0-.84-.48-1.67-1.54-1.74-3.99-.33-7.99.06-12,.31-1.05-1.06-2.23-2.02-2.72-2.57-.08-.07-.17-.14-.25-.21,3.49-6.48,3.13-16.11-3.77-19.99-6.82-3.88-15.42,1.26-14.76,9.21.03.38.06.84.11,1.36-2.75-.18-5.51.07-8.23.54-.55.03-1.02.19-1.43.43-2.3-3.64-6.06-6.52-9.94-7.73-16.71-4.55-24.85,12.77-15.26,25.35,1.98,2.63,4.32,4.95,6.94,6.93,1.05.8,2.19,1.76,3.54,1.83-.41.93-.91,1.78-1.65,2.48-1.54.66-3.02,1.51-3.74,3.11-1.21,1.53-.62,5.78,1.22,5.89-.1.12-.19.25-.28.37-1.88,2.39-5.17,13.99-.81,14.65.14-.07.26-.15.38-.24.3,1.09,1.49,1.49,2.54,1.72,1.74.59,3.56.92,5.38,1.12,1.29.46,2.63.86,3.82.42.28.09.54.23.76.44-.57,2.46-2.55,4.14-3.54,6.39-1.18,3.1,2.06,5.55,4.41,6.93,3.33,2.2,6.33,4.8,9.38,7.37.73.68,1.58,1.16,2.39,1.72.07.06.14.1.21.15.17.55.33,1.09.48,1.63-1.83-1.53-4.14-2.64-5.97-4.03-4.28-2.81-8.34-6.1-12.09-9.53-1.13-1.29-2.8-2.59-3.21-4.23.55-2.21,5.01-4.12,2.61-6.53-.66-.44-1.72-.28-2.41-.35-2.46-.21-4.82-.91-7.04-1.9-1.52-.96-1.15-2.97-1.63-4.48-.27-.77-.84-.98-1.34-.8,0-.01,0-.03-.01-.05-1.22-4.46-9.92,3.16-11.43,4.97-1.73,2.17-3.43,4.44-4.9,6.82-.01-3.16-.01-6.33-.07-9.5-.07-4.09-.18-8.17-.24-12.26-.07-5.54-.1-11.07-.05-16.6.03-2.82.02-5.63.03-8.45,0-3.19-.09-6.37-.25-9.22-.07-1.35-.16-2.71-.23-3.99-.08-1.41-.17-2.83-.31-4.23-.07-.69-.09-1.72-.71-2.17-.04-.1-.09-.2-.16-.28-.02-.09-.04-.17-.07-.25,0,0,0,0,0,0-.08-.18-.3-.27-.4,0-.03.08-.05.16-.07.25-.07.08-.12.18-.17.29-.31.22-.46.6-.56.99-.21.89-.23,1.84-.31,2.75-.18,2.12-.3,4.24-.4,6.03-.03.61-.07,1.22-.08,1.48-.13,2.19-.22,4.37-.24,6.57-.02,1.81-.01,3.62-.04,5.43-.05,3.54.01,7.08-.01,10.62-.05,7.87-.24,15.75-.44,23.62-.2,7.99-.18,15.98-.1,23.97-.37,2.99-.4,6.07.09,9.02.02,2.04.02,4.08,0,6.12-.03,4.95-.18,9.9-.26,14.85-.07,4.01-.13,8.03-.12,12.05,0,4.44.06,8.88.16,13.32.18,8.7.42,17.41.37,26.11-.02,4.12-.07,8.23-.19,12.34-.03,1.18.71,2.72,2.05,2.72s2.09-1.54,2.07-2.71c-.19-8.76-.14-17.53.08-26.3.21-8.66.52-17.32.57-25.99.04-7.49-.15-14.98-.21-22.47.07.08.14.17.22.26,2.94,3.27,8.63,8.28,13.44,8.04h0s.08.04.12.06c.18.06.35.12.53.18,0,.08,0,.16,0,.24-.19,3.73,3.16,6.48,5.58,8.93,1.09.73,2.25,1.25,3.46,1.61-.02.28.03.55.06.76.34,2,1.03,3.91,1.7,5.81-8.14,4.38-11.54,14.64-11.92,23.42-.34,7.18,2.51,14.37,2.84,21.4.96,6.65-4.49,12.71-10.61,14.51-1.97.61-8.42,1.02-10.21,1.37-1.48.61-2.07,2.55-1.72,4.02,1.81,4.85,8.49,5.48,13.01,5.1,5.47-.66,11.43-1.43,15.87-4.89,10.94-11.26,6.84-28.46,5.21-42.42-.19-2.84.62-6.49,3.94-6.91.52-.13.94-.42,1.25-.8,2.15,2.75,4.55,5.31,6.77,8,1.13,1.43,2.35,2.81,3.58,4.15-4.25,1.06-7.85,3.05-7.31,8.61-.6,2.2,1.9,16.22,5.29,27.03-1.47.02-2.99.41-4.37.68-3.85.73-11.89,2.38-9.8,7.87,1.89,3.07,5.98,3.02,9.11,3.85,3.98,1.81,8.27,2.26,12.58,2.44,4.06-.53,8.96-1.02,10.9-5.22.96-1.92,1.53-3.64,1.53-5.74.2-1.01.34-2.05.44-3.1-.05,2.39.24,4.75,1.81,6.56.57.83,1.52,1.35,2.44,1.66,3.1,2.06,6.74,3.17,10.42,3.51,6.03.98,12.21,1.17,18.32,1.22,3.65-.2,7.28-.27,10.7-1.65,8.14-4.17,5.11-10.54-.26-15.59-2.06-1.51-4.43-2.66-6.82-3.53-1.07-.18-3.25-.51-4.44-.01-.59-1.38-2.48-2.29-3.69-3-1.68-.87-2.98-2.08-4.5-3.09-.72-.5-1.4-1.17-2.12-1.75-.01-1.07-.48-1.9-.84-2.84,1.18-.51,1.74-1.76,1.55-2.95-.02-.45-.37-.84-.46-1.23-.23-1.46-.97-2.7-1.53-4.02-.56-1.18-.97-2.63-1.78-3.68,2.96-2.03,5.8-4.26,8.41-6.77,9.43-7.2,10-13.7,3.76-23.48-2.25-3.81-4.53-7.6-7.21-11.12-1.54-2.19-3.45-5.21-6.55-4.58-1.93.42-4.17-.5-5.26-2.08-.66-1.52.26-3.1.46-4.59.28.71.59,1.41.92,2.1,0,.53.2,1.05.62,1.41.74.71,1.82.62,2.77.57,4.5.06,5.98-4.44,5.98-4.44,0,0,1.54-3.93,2.34-7.77,0,0,.47-7.43-.99-10.31ZM43.01,78.66c-.07.33-.1.66-.11,1-.12-.08-.24-.17-.35-.26.16-.26.31-.51.46-.75ZM33.34,56.74c-.46,1.55-.85,3.01-1.23,4.48.17-1.43.65-2.95,1.09-4.12.04-.12.09-.24.14-.36ZM115.46,53.53s.05.03.09.04c-.03.01-.06.03-.09.04v-.08ZM114.09,48.78c1.87-.35,3.78-.17,4.7,1.67-.13.37-.31.71-.54,1.03-.06-.06-.13-.09-.2-.12-.74-.3-1.48-.55-2.17-1-.85-.25-1.32-.93-1.8-1.58ZM111.89,49.38s.03,0,.04-.01c0,.01,0,.02,0,.03-.01-.01-.03-.01-.05-.02ZM35.18,130.08c-.23.27-.3.6-.28.94-.14-.42-.29-.83-.44-1.25.3.06.62.1.93.14-.08.05-.15.1-.21.17ZM30.52,124.96c1.29.46,2.53.84,3.18,1.17.35.13.71.26,1.06.39-.51-.09-1.01-.2-1.51-.33-1.02-.19-1.93-.64-2.73-1.24ZM38.61,116.87c-.28-.24-.66-.37-1.02-.44-2.1-.49-1.04-2.57-.6-3.98.7-1.27,1.02-2.82,1.43-4.12.26-1.05.97-2.64-.07-3.44-.1-.04-.2-.05-.29-.03-.41-.8-2.51-1.55-3.1-1.9-2.46-1.2-4.51-2.98-6.49-4.73-.39-.44-.82-.35-1.02-.03-.2-.22-.5-.35-.89-.3-1.94.18-3.89-.03-5.82-.12-.61-.29-1.25-.53-1.71-.9,1.29-.62,2.86-.77,4.3-.85.83.06,1.81.35,2.53-.19,3.27-4.21,1.8-10.37,4.14-14.92.06-.01.11-.02.17,0,.41,3.53-.22,7.14-.71,10.61-.08.38-.17.97-.06,1.36t-.01.01c-.62,1.02.56,2.19,1.15,2.98,2.44,2.68,5.21,5.72,8.81,6.63.73-.04,1.07-.8.91-1.44.63-.57.92-1.96,1.42-2.53.97-1.16,2.18-4.83,4.05-3.94h0c.53,1.6-5.76,15.88-7.1,22.27ZM40.75,117.39c.01.3.1.6.26.84-.19.02-.37.04-.55.06.1-.3.2-.6.3-.91ZM59.31,117.19c.09.02.18.05.26.08,0,.68.2,1.36.58,1.85-4.05,1.89-8.52,2.44-12.91,3.09-3.24.37-6.48.42-9.67.03,5.36-.48,10.95-.8,15.93-2.9.4-.2.8-.45,1.19-.71,1.63-.24,3.37-.53,4.61-1.44ZM54.29,87.47s.05-.06.06-.1c.02.07.04.14.06.21-.04-.03-.08-.08-.12-.12ZM52.83,73.64c3.08,1.57,6.7,2.01,10.15,1.45,2.3-.24,4.62-1.09,6.37-2.53.54,2.38,1.11,4.75,1.72,7.12.26,1.25.6,2.59,1.02,3.82,2.58,9.39,5.7,18.63,9.19,27.71.18.49.36.99.53,1.49-2.4.63-4.95,1-7.29,1.46-3.33.95-6.75,1.36-10.13.93-.82-9.9-4.17-19.39-7.22-28.8-1.32-4.25-2.75-8.49-4.34-12.65ZM61.32,121.78c0,.17-.01.35-.03.51-.26.03-.51.07-.77.11.28-.2.54-.41.8-.62ZM60.69,114.93c.06-.58.1-1.17.12-1.76.07.53.13,1.07.19,1.61-.12.04-.22.09-.32.15ZM75.84,87.18c.44-.38.7-.86.84-1.4.08.03.16.06.24.08-.35.69-.65,1.4-.82,2.14-.09-.28-.17-.55-.26-.82ZM74.78,74.01c-.03-.22-.06-.44-.08-.66.08.03.17.06.25.08.01.06.03.12.06.19-.09.13-.17.27-.23.4ZM72.2,67.58c.01-.06.02-.13.03-.19.02-.12.04-.24.04-.37.27,0,.52-.03.76-.06-.3.19-.58.39-.83.62ZM70.32,71.63s0,0,.01-.01c0,0,0,.01,0,.03,0,0-.01-.01-.01-.01ZM48.03,80.7c.01-.07.03-.14.04-.2.01-.06.02-.12.04-.19.1.2.21.39.33.6-.14-.07-.27-.13-.4-.2ZM44.23,69.67c.12-.3.19-.62.2-.93.49,1.08.96,2.16,1.4,3.24-.08.01-.15.05-.24.09-.05-.96-.47-1.76-1.37-2.4ZM35.21,65.32c.04-.1.08-.19.11-.29.03.08.07.15.1.22-.08.02-.15.05-.21.07ZM63.58,20.5c4.4.93,8.4,3.29,12,5.96.21.15.42.3.62.46h-.21c-6-.25-11.97-.33-17.92.42-4.05.89-7.88,2.27-11.87,3.29-3.46,1.17-7.33,1.83-10.15,4.31-.07.07-.12.15-.17.23-2.3-2.05-5.04-3.72-6.77-6.38-2.95-3.56-4.65-9.32-1.85-13.39,2.41-2.1,5.74-3.06,8.86-2.95,5.86.26,10.59,4.84,12.95,9.94.57,1.24.79,2.79,1.81,3.73.95.57,1.72-.55,1.86-1.39.21-1.31.19-2.61-.03-3.88.09-.01.19-.03.28-.06.26-.06.53-.1.81-.15,1.83.76,3.62,1.66,5.37,2.44.54.26,1.16.63,1.76.37,1.13-.48,1.02-2.25.35-2.98-.08-.12-.17-.23-.26-.34.08,0,.17,0,.26.01.35.03.71.08,1.05.13.35.22.75.32,1.23.23ZM75.08,21.1c-3.04-2.29-6.31-4.34-9.89-5.56-.37-1.13-.8-2.3-.66-3.42.11-4.08,5.51-4.99,8.5-3.34,4.79,2.56,3.55,7.95,2.05,12.32ZM80.26,31.01c-.06.05-.12.1-.19.15-.1-.18-.19-.35-.29-.52.15-.01.29-.03.44-.04,0,.14.01.28.04.41ZM88.76,37.34s-.03.05-.03.07c-.63-.3-1.23-.62-1.83-.95.28-.08.55-.18.8-.3.24.52.61.95,1.07,1.18ZM93.45,29.88c-.12.19-.26.4-.39.62-.2-.3-.51-.53-.96-.65.39,0,.8,0,1.2.01.05,0,.1.01.14.02ZM91.7,63.71c.89.05,1.69.07,2.38.07.43-.01,1.02-.06,1.72-.12-.16.53-.25,1.06-.28,1.43-.12.49-.17,1.07-.29,1.53-.77.94-2.28.93-3.43.98.06-1.18.6-2.85-.1-3.87ZM71.32,53.74c-.35-.13-.69-.32-1.02-.53,1.85-.55,3.74-1.07,5.03-2.39.73-1.37-.38-2.93-1.91-2.75-4.61-.16-9.11,2.63-12.29,5.78-1.56,1.13-1.53,4.89.98,4.31,1.08-.81,2.05-1.74,3.1-2.55,1.91,2.08,5.35,3.72,9.28,4.97-1.51.43-3.04.79-4.62.95-4.14.3-8.04-.98-11.91-2.2-.44-.16-.84.11-1.03.5-.32,3.95,6.84,6.51,12.38,7.08-3.88,6.38-12.79,3.13-18.51.97-.11-.03-.22-.06-.33-.06-.58-1.34-1.19-2.66-1.82-3.98-1.49-2.34-3.09-4.59-4.73-6.82.63-.38,1.26-.77,1.59-1.45.55-1.12.32-2.71-.79-3.38-1.35-.55-2.74-.15-3.94.65-.57-.75-1.14-1.51-1.71-2.27,1.03-.63,2.59-.67,3-1.99.57-1.47-.66-3.16-2.28-2.62-2.17.58-3.81,2.06-5.24,3.76.12-.39.27-.77.48-1.13.91-1.43,2.61-2.1,3.7-3.37,1.16-1.4,1.73-3.15,1.95-4.95.06-1.22.12-1.99-.05-3.09,3.73-1.09,7.33-2.53,11.01-3.74,1.44,5.94,8.09,10.58,14.13,9.8,4.3-.88,8.09-4.45,9.24-8.7.24-1.05.43-2.34.15-3.44.06,0,.11,0,.17,0,.64-.06,1.29-.13,1.93-.2-.15.51-.2,1.09-.19,1.56-.1.43-.12.89-.08,1.27,1.57,7.76,12.33,9.78,18.83,11.46,3.39,1.18,7.05,2.01,10.45,3.06.65.12,1.24.45,1.83.77-.64.82-1.02,1.94-1.14,2.77-.44,1.77.13,3.54,1.26,4.79-7.8,3.54-16.53,3.24-24.76,1.56-4.45-.82-8.26-2.26-12.14-4.4ZM77.34,69.64c.34-.14.68-.28,1.01-.42-.35.53-.68,1.07-1.02,1.59,0-.06-.01-.1-.02-.16.09-.31.1-.67.04-1.02ZM82.92,78.57s-.08-.08-.12-.12c.01-.01.02-.03.03-.05.04.06.06.11.1.17ZM86.04,82.46c-.07-.03-.14-.05-.21-.05-.2-1.02-.94-1.93-1.72-2.66-.03-.03-.07-.08-.1-.11.26.11.54.11.81-.02.15.28.29.56.41.86.32.46.58,1.14.82,1.98ZM85.55,84.39c.02.06.05.12.08.19-.03-.02-.06-.03-.1-.06,0,0-.02,0-.03,0,.02-.04.04-.08.05-.12ZM88.21,91.5c.31.85.7,1.57,1.15,2.06-.01.04-.03.09-.05.13-.44-.72-.89-1.41-1.35-2,.09-.06.17-.13.25-.2ZM90.91,112.26s.06.03.08.04c-.02.04-.03.08-.04.12-.01-.06-.03-.11-.04-.17ZM87.62,114.25s.02.04.03.06c0,0,0,.01-.01.02,0-.03-.01-.06-.01-.08ZM83.82,91.5c.13-.26.22-.53.27-.8,3.04,3.54,4.34,7.53,6.4,11.72.32,1.37,1.06,3.5-1.36,5.43-.27.21-1.9,1.93-2.25,1.93-2.6-.86,2.42-4.44,1.23-6.5-1.46-3.9-3.41-7.71-4.28-11.78ZM82.29,86.68h0c-.98.33-1.66,1.19-2.21,2.04-.73,1.06-1.17,2.15-1.4,3.29-.28.37-.61.74-.93,1.11-.34-1-.66-2.01-.98-3.01.12,0,.26-.04.38-.14,1.13-1.05,1.23-2.73,2.24-3.88,3.89-4.39-.5-7.21-2.86-10.72.7-2.66,2.95-4.54,4.19-6.88.08-.18.19-.4.25-.62.46.33.87.68,1.2,1.08-1.07,1.72-1.72,3.72-2.59,5.54-.62,1.28-.91,3.06.66,3.68.24.16.48.33.73.5.17.17.36.31.56.39,1.21.87,2.35,1.88,2.98,3.2-.55,1.52-1.33,3-2.21,4.43ZM81.86,73.76c-.09-.08-.19-.15-.31-.2.1-.22.2-.44.3-.66,0,.28.01.55.04.82,0,.01-.01.03-.02.04ZM82.36,94.42c-.05-.28-.08-.56-.1-.83.09.24.17.46.26.7-.06.03-.12.08-.16.13ZM94.47,188.76c.04.35-.08.73-.21,1.03-.85,1.42-1.72,3.02-3.03,4.02-.5-.11-.69-.72-.5-1.14.56-1.83,2.18-2.91,3.65-3.98.04.01.06.03.1.07ZM99.74,193.74c-1.07,1.52-2.52,2.57-4.08,3.48-.04,0-.08,0-.1,0-.46-.03-.59-.61-.46-.99.82-1.93,2.79-2.97,4.3-4.28,1.27.55,1,.78.35,1.78ZM76.44,201.43c.04-.07.1-.12.15-.16,3.02,2.81,18.72,2.74,21.88,3.03,4.96-.22,10.06.12,14.88-1.12.59-.18,1.51-.39,1.56-1.09.74.98,1,2.26.45,3.41-1.7,2.27-5.15,2.03-7.66,2.41-6.87,1.05-13.73-.15-20.54-1.15-3.09-.57-11.77-.75-10.72-5.33ZM78.43,175.99c.03-.15.01-.28-.04-.39,2.74-1.49,5.45-3.04,8.08-4.7.17.31.42.59.5.93-.02.25-.05.56-.17.78-.85,1.13-2.17,1.8-3.4,2.42-1.54.69-3.28,1.61-4.91,1.81-.28-.17-.11-.58-.06-.84ZM87.67,183.37c.36.16.73.41.85.8-.85,1.21-2.59,1.74-3.87,2.48-1.85.92-3.74,2.15-5.85,2.09-1.07-.12-2.1-.62-2.36-1.7-.07-.26-.12-.67.14-.83,3.66-.86,7.4-1.94,11.09-2.84ZM66.82,159.13c-.35-.22-.74-.4-1.11-.56-.27-.12-.55-.28-.84-.44,1.67-1.54,3.29-3.25,4.82-4.37,1.81-1.24,4.23-1.62,5.54-3.56,1.46-1.23.41-3.13-.17-4.54-1.11-3.39-2.86-6.58-4.39-9.77-.52-1.21.57-2.3.84-3.47,1.11-2.55.96-5.73,2.95-7.61.09.03.18.06.28.07.04,0,.06,0,.09,0,.7,2.29,1,4.8.04,7.01-2.12,2.61-.81,5.4.8,7.85,1.1,1.64,1.86,3.46,2.84,5.15.07.15.19.25.33.29.33.75.79,1.45,1.34,1.45.12,0,.25-.03.38-.12.06.01.12.02.19.01,2.64-.47,5.34-.84,8-.64-1.7,1.99-4.73,2.41-7.08,3.28-3.09.82-5.92,2.35-8.46,4.28-.85.65-4.44,3.36-6.39,5.69ZM70.95,195.12c.02-.68.03-1.35.03-2.01.05.63.06,1.26-.03,1.88,0,.04,0,.09,0,.13ZM68.03,174.64c-1.4-.95-2.09-2.52-2.85-3.96-1.03-1.83-1.49-4.02-.71-6,0-.03.02-.06.03-.08,3.29,2.39,4.87,6.52,6.65,10,.21.4.27.77.28,1.15-.1-.03-.2-.06-.31-.08-1.11-.07-2.21-.34-3.09-1.04ZM64.1,181.17c-.62-.18-1.18-.58-1.47-1.13,2.24-1.47,5.03-.37,7.26.89.14.91.46,1.85.65,2.71-1.53-1.79-4.25-1.99-6.45-2.47ZM62.25,186.07c-.03-.21.1-.42.29-.48,1.31-.08,2.51.53,3.79.72.83.35,1.72.64,2.51,1.07.13.06.25.11.35.16-.02.17-.03.33-.03.5-.12-.17-.28-.31-.47-.42-2.01-.98-4.68.07-6.44-1.56ZM54.83,187.63c1.62,5.76,3.15,11.45,5.76,16.84.35.68.96,2.67,1.72,4.03-.74.12-1.59.17-2.57.12-.04,0-.09,0-.13,0-.06-2.2-2.21-4.32-2.69-6.42-1.26-4-3.25-7.56-4.65-11.44-1.55-4.49-2.17-9.24-3.51-13.81-1.1-3.94-2.6-9.31,2.61-9.78-.6,2.75.23,7.42.22,8.94.62,3.98,2.21,7.65,3.24,11.52ZM39.03,132.55c-1.01-.27-2.55-.27-2.95-1.4.01-.01.02-.03.03-.05.01-.02.03-.03.04-.06,0,0,0,0,0,0t.01-.01c.96-.21,1.84.35,2.8.31,2.39.07,4.69.2,7.05.1,3.16-.43,6.32-.88,9.42-1.55,1.85-.45,3.83-.73,5.6-1.48.37-.03.73-.05,1.09-.07.19.05.4.04.62-.03.15,0,.31,0,.46-.01-.37.45-.84.82-1.37,1.08-1.81,1.17-4.01,1.56-6.01,2.19-5.47,1.27-11.22,2.15-16.79.98ZM6.95,200.04c1.67-.51,3.43-.06,5.14-.18,1.59-.39,3.25-.35,4.83-.82,5.26-1.7,9.51-6.04,11.17-11.3,1.57-4.31.58-9.08.14-13.47,0-6.63-1.92-13.31-.68-19.88.57-2.92,1.19-5.9,2.38-8.62,1.51-2.42,3.55-4.48,5.71-6.33.84,2.2,1.75,4.36,3.01,6.36-8.66,3.44-5.76,16-3.91,23.35,3.3,11.72,2.42,31.15-12.86,32.73-4.87.68-11.02,1.78-14.93-1.84Z"/>
    </g>
  </g>
</svg>