<svg width="30" height="30" viewBox="0 0 30 30" fill="none" xmlns="http://www.w3.org/2000/svg">
<g clip-path="url(#clip0_2232_4208)">
<path d="M15 0C12.0333 0 9.13319 0.879735 6.66645 2.52796C4.19972 4.17618 2.27713 6.51886 1.14181 9.25975C0.00649933 12.0006 -0.290551 15.0166 0.288228 17.9264C0.867006 20.8361 2.29562 23.5088 4.3934 25.6066C6.49119 27.7044 9.16394 29.133 12.0737 29.7118C14.9834 30.2906 17.9994 29.9935 20.7403 28.8582C23.4811 27.7229 25.8238 25.8003 27.472 23.3336C29.1203 20.8668 30 17.9667 30 15C30 11.0218 28.4197 7.20644 25.6066 4.3934C22.7936 1.58035 18.9783 0 15 0ZM25.1731 15.4051C25.1731 15.7233 25.1103 16.0383 24.9884 16.3322C24.8664 16.6261 24.6877 16.893 24.4625 17.1177C24.2373 17.3424 23.9699 17.5205 23.6757 17.6418C23.3816 17.763 23.0664 17.825 22.7482 17.8243H20.2606C19.6174 17.8243 19.0007 18.0797 18.5459 18.5345C18.0912 18.9892 17.8357 19.606 17.8357 20.2491V22.7368C17.838 23.0569 17.7767 23.3742 17.6554 23.6705C17.5341 23.9667 17.3553 24.2359 17.1292 24.4625C16.9031 24.6891 16.6343 24.8686 16.3384 24.9906C16.0424 25.1126 15.7252 25.1746 15.4051 25.1731H14.5835C14.2653 25.1731 13.9503 25.1103 13.6564 24.9884C13.3625 24.8664 13.0956 24.6877 12.8709 24.4625C12.6461 24.2372 12.4681 23.9699 12.3468 23.6757C12.2256 23.3816 12.1636 23.0664 12.1643 22.7482V20.2606C12.1643 19.9416 12.1014 19.6258 11.9792 19.3313C11.857 19.0367 11.6779 18.7691 11.4521 18.5439C11.2263 18.3186 10.9583 18.1401 10.6635 18.0186C10.3686 17.8971 10.0527 17.8349 9.73374 17.8357H7.25181C6.93268 17.8364 6.61655 17.774 6.32164 17.6521C6.02672 17.5301 5.75886 17.351 5.53346 17.1251C5.30806 16.8992 5.1296 16.6309 5.00834 16.3357C4.88708 16.0405 4.82543 15.7242 4.82694 15.4051V14.5835C4.82694 14.2653 4.8897 13.9503 5.01163 13.6564C5.13356 13.3625 5.31227 13.0956 5.53751 12.8709C5.76276 12.6461 6.03012 12.4681 6.32428 12.3468C6.61845 12.2256 6.93364 12.1636 7.25181 12.1643H9.73374C10.0531 12.1651 10.3695 12.1027 10.6648 11.9808C10.96 11.859 11.2283 11.6799 11.4541 11.4541C11.68 11.2282 11.859 10.96 11.9808 10.6648C12.1027 10.3695 12.1651 10.0531 12.1643 9.73374V7.25181C12.1636 6.93364 12.2256 6.61844 12.3468 6.32428C12.4681 6.03011 12.6461 5.76275 12.8709 5.5375C13.0956 5.31226 13.3625 5.13355 13.6564 5.01162C13.9503 4.88969 14.2653 4.82693 14.5835 4.82693H15.4051C15.7233 4.82693 16.0383 4.88969 16.3322 5.01162C16.6261 5.13355 16.893 5.31226 17.1177 5.5375C17.3425 5.76275 17.5205 6.03011 17.6418 6.32428C17.763 6.61844 17.825 6.93364 17.8243 7.25181V9.73374C17.8235 10.0527 17.8857 10.3686 18.0072 10.6635C18.1287 10.9583 18.3072 11.2263 18.5325 11.4521C18.7577 11.6779 19.0253 11.857 19.3199 11.9792C19.6144 12.1014 19.9302 12.1643 20.2491 12.1643H22.7368C23.055 12.1636 23.3701 12.2256 23.6643 12.3468C23.9585 12.4681 24.2258 12.6461 24.4511 12.8709C24.6763 13.0956 24.855 13.3625 24.977 13.6564C25.0989 13.9503 25.1617 14.2653 25.1617 14.5835L25.1731 15.4051Z" fill="white"/>
</g>
<defs>
<clipPath id="clip0_2232_4208">
<rect width="30" height="30" fill="white"/>
</clipPath>
</defs>
</svg>
