<svg width="18" height="18" viewBox="0 0 18 18" fill="none" xmlns="http://www.w3.org/2000/svg">
<g clip-path="url(#clip0_48_2487)">
<path d="M0.183327 8.92786C0.188249 11.2836 1.1165 13.5415 2.76501 15.2075C4.41351 16.8736 6.64806 17.8122 8.9798 17.818C8.18747 10.4378 7.48524 9.73148 0.183327 8.92786Z" fill="white"/>
<path d="M8.9798 0C6.64781 0.00497907 4.41278 0.943314 2.7641 2.60955C1.11542 4.27578 0.187431 6.53414 0.183327 8.89013C7.48524 8.0865 8.18747 7.37705 8.9798 0Z" fill="white"/>
<path d="M9.01088 17.818C11.3442 17.8147 13.5812 16.8772 15.2317 15.2108C16.8822 13.5445 17.8117 11.2852 17.8167 8.92786C10.5148 9.73148 9.81254 10.4378 9.01088 17.818Z" fill="white"/>
<path d="M9.01088 0C9.80322 7.37705 10.5054 8.0865 17.8074 8.89013C17.8033 6.53414 16.8753 4.27578 15.2266 2.60955C13.5779 0.943314 11.3429 0.00497907 9.01088 0Z" fill="white"/>
<path d="M0 8.90897L0.183325 8.92781V8.89014L0 8.90897Z" fill="white"/>
<path d="M9.01087 17.9999C9.01087 17.9403 9.02641 17.8775 9.03262 17.8179H8.9798L9.01087 17.9999Z" fill="white"/>
<path d="M17.8167 8.89014V8.92781L18 8.90897L17.8167 8.89014Z" fill="white"/>
</g>
<defs>
<clipPath id="clip0_48_2487">
<rect width="18" height="18" fill="white"/>
</clipPath>
</defs>
</svg>
