<svg width="298" height="83" viewBox="0 0 298 83" fill="none" xmlns="http://www.w3.org/2000/svg">
<path d="M18.5889 66.4814C19.1839 65.7125 20.0584 65.4773 20.6263 64.5003C22.1318 61.9311 22.0958 53.1471 21.3385 50.2523C19.8691 44.6165 12.6751 43.2867 11.9629 34.8193C10.8721 21.8107 24.4397 14.6731 35.8617 15.3968C41.8116 15.7768 50.2136 21.0056 55.4513 17.9298L58.3451 15.4059V24.3256C58.3451 24.5879 57.5878 26.4695 57.3715 26.8495C54.8923 31.1736 46.8419 31.3274 42.5779 30.3414C39.6931 29.681 37.0517 27.736 34.4463 26.958C33.7071 26.7409 34.0316 27.1752 33.9505 27.4827C33.8784 27.7632 33.5809 28.8035 33.5809 28.8759V41.6402C35.3659 39.5867 37.286 36.4657 40.1889 35.8506C45.8233 34.6474 51.7551 39.4329 56.9478 35.344L51.9805 47.3213C50.9618 49.3025 49.258 49.3025 47.2837 48.7144C44.2727 47.8098 38.0613 41.3236 35.5822 41.7035C34.0136 41.9388 33.6981 43.6576 33.5719 44.9512C33.2383 48.5245 33.2203 62.302 35.0323 64.8531C35.5732 65.622 36.3124 65.7396 36.7271 66.4724H18.5979L18.5889 66.4814ZM21.7261 47.2399V36.2215C21.7261 35.1269 24.4847 32.2682 25.3953 31.5083L33.2383 26.4334C21.4016 21.2046 8.63636 32.6844 17.7145 44.1008C18.1652 44.6707 21.1402 47.846 21.7261 47.2489V47.2399Z" fill="black"/>
<path d="M71.3087 66.9518H71.0923C69.677 66.9518 68.2346 66.6352 66.7651 65.9929C65.2957 65.3596 64.0606 64.2922 63.0599 62.7905C62.0593 61.2979 61.5544 59.2262 61.5544 56.5757C61.6536 52.8034 62.6633 49.809 64.5925 47.6017C66.5217 45.3944 68.9017 43.6575 71.7414 42.382C76.0866 40.3194 79.4582 38.6278 81.8562 37.307C84.8853 35.6877 87.4275 33.8604 89.4829 31.8249C91.5384 29.7895 92.5661 27.5189 92.5661 25.0221V24.5788C92.1784 22.2268 90.6639 21.0508 88.0225 21.0508C86.6071 21.0508 85.318 21.4036 84.1731 22.1182C83.0282 22.8329 81.9644 23.6742 80.9818 24.6603L79.8098 25.8363C78.3404 27.3108 76.88 28.5683 75.4105 29.6267C73.9411 30.6851 72.1831 31.2098 70.1367 31.2098L69.695 31.1374C65.6833 30.7937 63.5107 29.1744 63.1681 26.2795L63.096 25.1759C63.096 21.3493 65.6382 18.4816 70.7227 16.5728C74.6352 15.1526 78.7641 14.4198 83.1093 14.3655C86.8235 14.3655 89.7804 15.1978 91.9801 16.8714C94.1797 18.5359 95.7754 20.7341 96.7851 23.4571C97.7857 26.18 98.2906 29.1382 98.2906 32.3225L98.2185 35.4887C98.2185 42.3549 98.4619 49.221 98.9487 56.0872C98.9487 57.0642 99.129 58.1588 99.4986 59.3619C99.8682 60.5651 100.68 61.6778 101.951 62.7091C102.582 63.2519 102.906 63.8127 102.906 64.4007C102.906 65.0883 102.419 65.5315 101.437 65.7215H88.1667C87.4365 65.7215 86.8505 65.6129 86.4088 65.3868C85.9671 65.1697 85.6516 64.654 85.4532 63.8399C85.2549 63.0347 85.1557 61.7411 85.1557 59.9771L85.2278 57.5527C81.9554 63.8308 77.3127 66.9699 71.2997 66.9699L71.3087 66.9518ZM79.2239 56.2862C81.0269 55.9877 82.7758 54.4498 84.4616 51.6545C86.1474 48.8592 87.6258 45.8196 88.897 42.5358C90.1681 39.252 91.0696 36.7009 91.6105 34.8826C89.6542 37.2346 87.4546 39.4962 85.0115 41.6492C82.8118 43.6123 80.8916 45.5482 79.2599 47.457C77.6192 49.3658 76.8078 51.3288 76.8078 53.3371C76.8529 54.4679 77.1594 55.2368 77.7274 55.653C78.2863 56.0691 78.7911 56.2771 79.2329 56.2771L79.2239 56.2862Z" fill="black"/>
<path d="M119.034 66.9518C116.636 65.9748 114.022 65.432 111.191 65.3325C109.532 65.3325 107.991 65.6039 106.575 66.1376C107.206 64.2741 107.756 60.2123 108.225 53.9613C108.685 47.7103 108.919 41.3236 108.919 34.8012C108.919 23.4209 108.189 16.8533 106.72 15.0893C107.991 15.5325 109.604 15.7496 111.561 15.7496C114.004 15.7496 115.861 15.5325 117.132 15.0893V15.6049C117.132 17.767 117.961 20.9603 119.62 25.203C121.279 29.4458 123.19 33.797 125.336 38.2569C127.481 42.7167 129.392 46.5071 131.051 49.6191C132.71 52.731 133.593 54.3865 133.693 54.5855C133.693 37.8679 132.052 24.7236 128.779 15.1616C131.268 15.9939 133.206 16.41 134.567 16.41C136.37 16.41 138.939 15.8491 142.266 14.7184C140.95 18.5449 139.994 23.2852 139.408 28.9482C138.822 34.6112 138.525 40.3375 138.525 46.1272C138.525 53.8256 138.966 60.4927 139.841 66.1376L138.597 65.9205C137.623 65.6763 136.613 65.5496 135.595 65.5496C134.224 65.5496 132.683 65.8482 130.979 66.4362L129.807 66.8071C129.419 63.9122 128.238 59.8595 126.291 54.6307C124.335 49.411 122.244 44.4355 120.026 39.6952C117.799 34.964 116.05 31.8611 114.788 30.3866V31.4179C114.788 35.2897 115.158 40.9346 115.888 48.3345C116.618 55.7434 117.673 61.9401 119.043 66.9428L119.034 66.9518Z" fill="black"/>
<path d="M144.096 67.4674L143.366 67.0242L145.935 59.0091C147.449 58.0321 149.018 57.5346 150.623 57.5346C152.281 57.5798 153.58 57.7065 154.508 57.9055L164.767 27.0847L164.398 26.1258C164.055 24.995 163.577 23.9456 162.964 22.9595C162.351 21.9825 161.414 21.4398 160.143 21.3402C159.07 21.3402 157.979 21.7111 156.879 22.4439C155.779 23.1767 154.815 24.018 153.985 24.9407L153.183 24.2803L154.571 22.2177C155.356 20.9965 156.212 19.7752 157.141 18.5721C158.069 17.3689 159.106 16.3648 160.26 15.5597C161.405 14.7545 162.712 14.3474 164.181 14.3474C164.911 14.3474 165.741 14.4379 166.669 14.6007C167.598 14.7726 168.49 15.1797 169.347 15.8129C170.203 16.4552 170.897 17.4322 171.438 18.753L185.583 55.1644C186.07 56.6842 186.8 58.1407 187.783 59.5429C188.756 60.945 189.955 61.6416 191.37 61.6416C192.885 61.6416 194.129 61.2526 195.112 60.4656C196.085 59.6786 196.87 58.9187 197.456 58.1859L197.753 57.815L198.555 58.9187C197.239 60.9812 195.517 62.8267 193.39 64.4731C191.262 66.1195 189.126 66.9337 186.971 66.9337C184.528 66.9337 182.608 66.3457 181.22 65.1697C179.831 63.9937 178.704 62.5101 177.848 60.7189C176.992 58.9277 176.225 57.0551 175.54 55.0921L174.512 52.2244H159.043L156.987 58.403L157.357 58.5478C159.016 59.0363 160.485 59.2805 161.756 59.2805C163.126 59.2805 164.226 58.7197 165.056 57.5889L166.011 57.9598L162.64 66.4904C161.756 66.8342 160.927 67.0061 160.152 67.0061C158.394 66.8613 156.636 66.4814 154.878 65.8662C153.12 65.2511 151.362 64.9435 149.604 64.9435C147.503 64.9435 145.673 65.7758 144.105 67.4403L144.096 67.4674ZM172.25 46.2086L166.165 30.6127L161.035 46.2086H172.25Z" fill="black"/>
<path d="M221.291 65.7034H197.023V64.6721C203.424 64.6721 206.768 61.4155 207.066 54.8931V18.8435H201.053C198.366 19.0425 196.103 20.5804 194.273 23.4752C192.443 26.37 191.136 29.4367 190.352 32.6663L189.18 32.3677L193.435 13.0991L194.391 13.2438C194.778 14.8631 196.419 15.6682 199.304 15.6682H219.317C222.148 15.6682 223.789 14.8631 224.23 13.2438L225.114 13.0991L229.441 32.3677L228.269 32.6663C227.485 29.4277 226.168 26.37 224.311 23.4752C222.454 20.5804 220.21 19.0334 217.568 18.8435H211.339V54.884C211.636 61.4064 214.954 64.6631 221.309 64.6631V65.6944L221.291 65.7034Z" fill="black"/>
<path d="M238.88 33.0372C238.339 29.7533 237.473 27.537 236.274 26.3791C235.075 25.2302 233.038 24.5246 230.153 24.2803C233.038 24.0813 235.075 23.4119 236.274 22.2539C237.473 21.1051 238.339 18.8797 238.88 15.5959C239.421 18.8797 240.286 21.1051 241.485 22.2539C242.684 23.4028 244.721 24.0813 247.606 24.2803C244.721 24.5246 242.684 25.2211 241.485 26.3791C240.286 27.528 239.421 29.7533 238.88 33.0372ZM242.621 65.7034H235.147V39.2972L242.621 33.1186V65.7034Z" fill="black"/>
<path d="M261.534 65.7034H252.005C251.077 65.7034 250.59 65.1878 250.536 64.1565C250.581 63.668 250.878 62.4377 251.419 60.4747C253.132 55.273 254.178 50.1799 254.575 45.1773V44.8064C254.575 42.8976 254.34 40.9436 253.88 38.9625C253.412 36.9723 252.943 35.0726 252.447 33.2633C251.473 30.3685 250.978 28.0436 250.978 26.2705L251.05 25.6101C251.636 22.3715 253.43 19.721 256.441 17.6675C259.443 15.6049 262.093 14.5284 264.392 14.4289C267.133 14.4289 268.548 15.7496 268.647 18.4002C268.647 19.5762 268.368 20.9151 267.8 22.4077C267.241 23.9004 266.619 25.3749 265.934 26.8223C265.248 28.2697 264.662 29.6086 264.176 30.8299C263.689 32.0602 263.445 33.0824 263.445 33.9237C263.445 35.0997 264.203 35.742 265.717 35.8325L266.889 35.7601C268.16 35.4616 269.269 34.367 270.225 32.4492C271.18 30.5404 272.073 28.3331 272.902 25.8272C273.587 23.9185 274.29 22.1002 275.03 20.3814C275.76 18.6626 276.589 17.2423 277.518 16.1115C278.446 14.9807 279.519 14.4198 280.745 14.4198C281.629 14.4651 282.593 14.9355 283.639 15.813C284.694 16.6995 285.604 17.9117 286.389 19.4586C287.173 21.0056 287.561 22.7605 287.561 24.7145C287.561 26.6685 287.074 28.5864 286.091 30.7484C283.792 35.0183 281.538 37.6779 279.312 38.7273C277.085 39.7857 275.048 40.3104 273.191 40.3104C272.551 40.3104 271.947 40.3556 271.361 40.4551C271.018 40.5547 270.675 40.7718 270.333 41.1155C269.99 41.4593 269.819 41.8302 269.819 42.2192C269.819 42.6624 270.207 42.9791 270.991 43.1781C273.822 43.7661 276.517 45.0145 279.059 46.9323C281.602 48.8411 283.702 51.2203 285.361 54.0699C287.02 56.9104 287.849 60.0042 287.849 63.3423V63.858C287.804 64.6902 287.461 65.1968 286.821 65.3687C286.181 65.5406 285.478 65.622 284.694 65.622H273.921C272.551 65.622 271.82 64.4731 271.721 62.1663V61.135C271.721 60.348 271.748 59.5429 271.793 58.7106C271.838 57.8784 271.865 57.0461 271.865 56.2138C271.865 53.8075 271.397 51.8716 270.477 50.4061C268.665 47.7103 267.205 46.3624 266.078 46.3624C265.05 46.3624 264.392 47.6108 264.094 50.1166C264.094 51.1479 264.302 52.3149 264.717 53.6085C265.131 54.9112 265.582 56.2229 266.069 57.5436C267.042 59.8957 267.61 61.8859 267.755 63.5052C267.755 64.1475 267.583 64.6541 267.241 65.0521C266.898 65.4411 266.312 65.6401 265.483 65.6401C264.653 65.6401 263.328 65.6672 261.525 65.7125L261.534 65.7034Z" fill="black"/>
</svg>
