<svg width="18" height="18" viewBox="0 0 18 18" fill="none" xmlns="http://www.w3.org/2000/svg">
<path d="M14.4137 10.1873C14.2579 10.0319 14.1344 9.84721 14.05 9.64393C13.9657 9.44065 13.9223 9.22273 13.9223 9.00266C13.9223 8.78258 13.9657 8.56467 14.05 8.36138C14.1344 8.1581 14.2579 7.97345 14.4137 7.81799L17.5078 4.71805C17.6637 4.56234 17.7873 4.37744 17.8717 4.17392C17.9561 3.9704 17.9995 3.75224 17.9995 3.53193C17.9995 3.31161 17.9561 3.09346 17.8717 2.88993C17.7873 2.68641 17.6637 2.50151 17.5078 2.3458L15.6508 0.491662C15.4951 0.335796 15.3102 0.212148 15.1066 0.127785C14.9031 0.0434225 14.685 0 14.4647 0C14.2443 0 14.0262 0.0434225 13.8227 0.127785C13.6191 0.212148 13.4342 0.335796 13.2785 0.491662L10.1873 3.58578C10.0319 3.74155 9.84721 3.86514 9.64393 3.94946C9.44065 4.03378 9.22273 4.07719 9.00266 4.07719C8.78258 4.07719 8.56467 4.03378 8.36138 3.94946C8.1581 3.86514 7.97345 3.74155 7.81799 3.58578L4.71805 0.491662C4.56234 0.335796 4.37744 0.212148 4.17392 0.127785C3.9704 0.0434225 3.75224 0 3.53193 0C3.31161 0 3.09346 0.0434225 2.88993 0.127785C2.68641 0.212148 2.50151 0.335796 2.3458 0.491662L0.491662 2.3458C0.335796 2.50151 0.212148 2.68641 0.127785 2.88993C0.0434225 3.09346 0 3.31161 0 3.53193C0 3.75224 0.0434225 3.9704 0.127785 4.17392C0.212148 4.37744 0.335796 4.56234 0.491662 4.71805L3.58578 7.81508C3.74155 7.97054 3.86514 8.15519 3.94946 8.35847C4.03378 8.56175 4.07719 8.77967 4.07719 8.99975C4.07719 9.21982 4.03378 9.43774 3.94946 9.64102C3.86514 9.8443 3.74155 10.029 3.58578 10.1844L0.491662 13.2785C0.335796 13.4342 0.212148 13.6191 0.127785 13.8227C0.0434225 14.0262 0 14.2443 0 14.4647C0 14.685 0.0434225 14.9031 0.127785 15.1066C0.212148 15.3102 0.335796 15.4951 0.491662 15.6508L2.3458 17.5078C2.50151 17.6637 2.68641 17.7873 2.88993 17.8717C3.09346 17.9561 3.31161 17.9995 3.53193 17.9995C3.75224 17.9995 3.9704 17.9561 4.17392 17.8717C4.37744 17.7873 4.56234 17.6637 4.71805 17.5078L7.81508 14.4137C7.97054 14.2579 8.15519 14.1344 8.35847 14.05C8.56175 13.9657 8.77967 13.9223 8.99975 13.9223C9.21982 13.9223 9.43774 13.9657 9.64102 14.05C9.8443 14.1344 10.029 14.2579 10.1844 14.4137L13.2785 17.5078C13.4342 17.6637 13.6191 17.7873 13.8227 17.8717C14.0262 17.9561 14.2443 17.9995 14.4647 17.9995C14.685 17.9995 14.9031 17.9561 15.1066 17.8717C15.3102 17.7873 15.4951 17.6637 15.6508 17.5078L17.5078 15.6508C17.6637 15.4951 17.7873 15.3102 17.8717 15.1066C17.9561 14.9031 17.9995 14.685 17.9995 14.4647C17.9995 14.2443 17.9561 14.0262 17.8717 13.8227C17.7873 13.6191 17.6637 13.4342 17.5078 13.2785L14.4137 10.1873ZM11.1188 9.3927L12.5741 10.8481C12.6774 10.9522 12.7354 11.0929 12.7354 11.2396C12.7354 11.3862 12.6774 11.5269 12.5741 11.6311L11.6311 12.5741C11.5269 12.6774 11.3862 12.7354 11.2396 12.7354C11.0929 12.7354 10.9522 12.6774 10.8481 12.5741L9.3927 11.1188C9.28808 11.0153 9.14688 10.9573 8.99975 10.9573C8.85261 10.9573 8.71142 11.0153 8.6068 11.1188L7.15143 12.5741C7.0473 12.6774 6.90659 12.7354 6.75993 12.7354C6.61328 12.7354 6.47257 12.6774 6.36844 12.5741L5.42536 11.6311C5.37353 11.5799 5.33237 11.5189 5.30428 11.4517C5.27619 11.3845 5.26172 11.3124 5.26172 11.2396C5.26172 11.1667 5.27619 11.0946 5.30428 11.0274C5.33237 10.9602 5.37353 10.8992 5.42536 10.8481L6.88073 9.3927C6.93265 9.34127 6.97387 9.28007 7.002 9.21262C7.03013 9.14518 7.04461 9.07282 7.04461 8.99975C7.04461 8.92667 7.03013 8.85432 7.002 8.78687C6.97387 8.71942 6.93265 8.65822 6.88073 8.6068L5.42536 7.15143C5.37353 7.10026 5.33237 7.0393 5.30428 6.97209C5.27619 6.90489 5.26172 6.83277 5.26172 6.75993C5.26172 6.6871 5.27619 6.61498 5.30428 6.54778C5.33237 6.48057 5.37353 6.41961 5.42536 6.36844L6.36844 5.42536C6.41961 5.37353 6.48057 5.33237 6.54778 5.30428C6.61498 5.27619 6.6871 5.26172 6.75993 5.26172C6.83277 5.26172 6.90489 5.27619 6.97209 5.30428C7.0393 5.33237 7.10026 5.37353 7.15143 5.42536L8.6068 6.88073C8.65822 6.93265 8.71942 6.97387 8.78687 7.002C8.85432 7.03013 8.92667 7.04461 8.99975 7.04461C9.07282 7.04461 9.14518 7.03013 9.21262 7.002C9.28007 6.97387 9.34127 6.93265 9.3927 6.88073L10.8481 5.42536C10.8992 5.37353 10.9602 5.33237 11.0274 5.30428C11.0946 5.27619 11.1667 5.26172 11.2396 5.26172C11.3124 5.26172 11.3845 5.27619 11.4517 5.30428C11.5189 5.33237 11.5799 5.37353 11.6311 5.42536L12.5741 6.36844C12.6774 6.47257 12.7354 6.61328 12.7354 6.75993C12.7354 6.90659 12.6774 7.0473 12.5741 7.15143L11.1188 8.6068C11.0153 8.71142 10.9573 8.85261 10.9573 8.99975C10.9573 9.14688 11.0153 9.28808 11.1188 9.3927Z" fill="#1F1E1D"/>
</svg>
