<svg width="18" height="18" viewBox="0 0 18 18" fill="none" xmlns="http://www.w3.org/2000/svg">
<g clip-path="url(#clip0_48_2496)">
<path d="M10.3617 7.63825C9.33771 6.6111 9.33771 4.40118 9.33771 0H8.66229C8.66229 4.40118 8.66229 6.6111 7.63825 7.63825C6.61421 8.6654 4.40118 8.6654 0 8.6654V9.33771C4.40118 9.33771 6.6111 9.33771 7.63825 10.3617C8.6654 11.3858 8.66229 13.5988 8.66229 18H9.33771C9.33771 13.5988 9.33771 11.3889 10.3649 10.3617C11.392 9.3346 13.5988 9.33771 18 9.33771V8.6654C13.5988 8.6654 11.3889 8.6654 10.3617 7.63825Z" fill="white"/>
<path d="M8.09269 15.0275C6.05084 16.1355 4.25177 16.3908 3.34601 15.5161C1.82397 14.0439 3.41138 9.93529 6.89123 6.33716C10.3711 2.73903 14.4174 1.01466 15.9395 2.49002C16.8421 3.36154 16.6491 5.16995 15.6127 7.24603C16.0546 5.94809 16.0173 4.85558 15.3948 4.25485C14.0937 3.00982 10.7259 4.36379 7.88726 7.30828C5.04859 10.2528 3.78489 13.6579 5.08594 14.9154C5.70846 15.513 6.80097 15.513 8.09269 15.0275Z" fill="white"/>
</g>
<defs>
<clipPath id="clip0_48_2496">
<rect width="18" height="18" fill="white"/>
</clipPath>
</defs>
</svg>
