<svg width="44" height="30" viewBox="0 0 44 30" fill="none" xmlns="http://www.w3.org/2000/svg">
<g clip-path="url(#clip0_2189_7394)">
<path d="M39.5532 14.1306C38.7862 14.1301 38.0322 14.3288 37.3649 14.7074C34.3822 16.3675 30.6286 16.7573 28.23 11.2935C28.23 8.62787 30.1146 8.61228 30.5663 8.76816C30.6947 8.80906 30.8287 8.83009 30.9635 8.83052C31.2054 8.83579 31.4439 8.77343 31.6523 8.65045C31.8607 8.52747 32.0307 8.34873 32.1432 8.13435C32.2557 7.91997 32.3062 7.67843 32.2891 7.43689C32.2719 7.19536 32.1878 6.9634 32.0461 6.76709C31.9045 6.57079 31.7109 6.41793 31.4872 6.32569C31.2635 6.23345 31.0185 6.20549 30.7798 6.24496C30.5411 6.28443 30.3181 6.38975 30.136 6.5491C29.9538 6.70845 29.8196 6.91549 29.7486 7.14696C29.6084 7.58344 28.6505 8.93964 26.8127 7.92639C26.0339 5.14385 28.1288 4.19295 29.0555 4.1306C29.457 4.10476 29.8422 3.96202 30.1638 3.71994C30.4853 3.47786 30.7291 3.14699 30.8652 2.76804C31.0013 2.38909 31.0237 1.97859 30.9298 1.58704C30.8358 1.19549 30.6295 0.839965 30.3363 0.564206C30.0431 0.288447 29.6758 0.104481 29.2795 0.0349396C28.8832 -0.0346014 28.4752 0.013316 28.1058 0.172797C27.7363 0.332278 27.4215 0.596366 27.2001 0.932572C26.9786 1.26878 26.8602 1.66244 26.8594 2.06512C26.8475 2.17131 26.8475 2.2785 26.8594 2.38469C27.0229 3.43691 26.3766 6.2818 22.1868 5.12046C20.5678 4.67133 18.8518 4.71545 17.2579 5.24718C15.6641 5.77892 14.2648 6.77412 13.2389 8.10565C9.82789 12.4704 7.36701 10.5375 6.46365 9.5242C6.20673 9.22316 5.86907 9.00202 5.49057 8.88695C5.11207 8.77188 4.70856 8.76769 4.32775 8.87486C3.94694 8.98203 3.60475 9.19609 3.34164 9.49172C3.07853 9.78736 2.9055 10.1522 2.843 10.5432C2.78051 10.9341 2.83116 11.3348 2.98897 11.6978C3.14678 12.0609 3.40515 12.3711 3.73354 12.5918C4.06193 12.8126 4.4466 12.9346 4.84207 12.9435C5.23755 12.9523 5.6273 12.8477 5.96524 12.6419C7.00878 12.0339 9.48524 11.0831 11.3309 14.6606C10.6923 18.9864 7.63958 19.5632 5.19427 18.9318C4.84802 18.8442 4.49229 18.7997 4.13515 18.7993C3.35473 18.7981 2.58989 19.0179 1.92904 19.4334C1.26818 19.8489 0.73828 20.443 0.400586 21.1472C0.0628929 21.8514 -0.0688101 22.6368 0.0206993 23.4128C0.110209 24.1887 0.417276 24.9234 0.906412 25.5321C1.39555 26.1407 2.04678 26.5984 2.78485 26.8522C3.52291 27.106 4.31768 27.1456 5.07729 26.9664C5.83689 26.7872 6.53033 26.3966 7.07746 25.8396C7.62458 25.2826 8.00305 24.582 8.16913 23.8188C8.76878 21.0753 11.0272 18.3629 16.1826 20.8414C17.3431 21.4128 18.6195 21.7088 19.9128 21.7066H20.3256C25.7146 21.4494 26.3921 24.2631 26.213 26.3831C26.213 26.4767 26.213 26.5702 26.213 26.6637C26.2136 27.2861 26.389 27.8959 26.7191 28.4233C27.0493 28.9508 27.5209 29.3748 28.0802 29.6469C28.6395 29.919 29.264 30.0283 29.8824 29.9623C30.5008 29.8963 31.0882 29.6576 31.5776 29.2736C32.067 28.8895 32.4386 28.3755 32.6502 27.7902C32.8618 27.2049 32.9047 26.5719 32.7741 25.9633C32.6435 25.3548 32.3446 24.7953 31.9115 24.3485C31.4785 23.9018 30.9287 23.5859 30.3249 23.4369C28.596 23.0082 26.579 21.8391 27.2098 18.472C31.4152 16.009 34.1486 18.1057 35.7762 20.8103C36.1706 21.4845 36.7352 22.0432 37.4133 22.4303C38.0914 22.8174 38.8592 23.0194 39.6399 23.016C40.4205 23.0125 41.1866 22.8039 41.8613 22.4108C42.536 22.0177 43.0956 21.4541 43.4841 20.7764C43.8726 20.0987 44.0763 19.3307 44.0749 18.5494C44.0734 17.7681 43.8668 17.0009 43.4758 16.3246C43.0848 15.6484 42.5231 15.0869 41.8469 14.6963C41.1708 14.3058 40.404 14.0999 39.6233 14.0994L39.5532 14.1306Z" fill="white"/>
</g>
<defs>
<clipPath id="clip0_2189_7394">
<rect width="44" height="30" fill="white"/>
</clipPath>
</defs>
</svg>
