<svg width="18" height="20" viewBox="0 0 18 20" fill="none" xmlns="http://www.w3.org/2000/svg">
<g clip-path="url(#clip0_2244_5066)">
<path d="M16.9548 12.1456C16.6482 11.9711 16.3028 11.8754 15.9497 11.8669C13.499 11.8191 12.3457 11.3932 11.1443 10.4019C12.3216 9.17583 13.7112 8.43141 16.1779 8.08507C16.4436 8.04898 16.6994 7.96104 16.9308 7.82631C17.2054 7.66738 17.44 7.44829 17.6166 7.1857C17.7933 6.92311 17.9074 6.62393 17.9503 6.31091C17.9932 5.99789 17.9638 5.67927 17.8642 5.37927C17.7646 5.07927 17.5976 4.80578 17.3757 4.57961C17.1538 4.35344 16.883 4.18053 16.5838 4.07403C16.2847 3.96753 15.965 3.93024 15.6491 3.965C15.3333 3.99977 15.0296 4.10566 14.7611 4.27464C14.4926 4.44361 14.2663 4.67122 14.0996 4.94016C12.8262 7.01023 11.6089 7.98953 10.0551 8.5787C9.68672 6.8908 9.83489 5.18698 10.856 2.98156C10.9953 2.70058 11.0666 2.39114 11.0643 2.0779C11.0407 1.54199 10.8099 1.03581 10.4201 0.664884C10.0303 0.293958 9.51153 0.0869141 8.97193 0.0869141C8.43233 0.0869141 7.91355 0.293958 7.52375 0.664884C7.13394 1.03581 6.90319 1.54199 6.8796 2.0779C6.8786 2.39272 6.95126 2.70345 7.09184 2.98555C8.13299 5.18698 8.29317 6.8908 7.92877 8.58268C6.37104 7.99749 5.14568 7.02217 3.86025 4.96007C3.67783 4.66794 3.42623 4.42465 3.12743 4.25147C2.85965 4.09574 2.56041 4.00109 2.25133 3.97438C1.94226 3.94766 1.63107 3.98954 1.34027 4.09699C1.04947 4.20444 0.786307 4.37477 0.569813 4.59568C0.353319 4.81659 0.188899 5.08255 0.0884352 5.37435C-0.0120286 5.66615 -0.0460261 5.97649 -0.0111002 6.28294C0.0238257 6.5894 0.126803 6.88431 0.290388 7.14637C0.453973 7.40842 0.67408 7.63108 0.934801 7.79824C1.19552 7.9654 1.49034 8.07288 1.79796 8.11293C4.2647 8.45131 5.66625 9.19176 6.85157 10.4139C5.67827 11.4051 4.50096 11.839 2.04623 11.8948C1.69579 11.9042 1.35318 12 1.04912 12.1734C0.780007 12.3263 0.548379 12.5367 0.370951 12.7893C0.193522 13.042 0.0747186 13.3306 0.0231102 13.6345C-0.0284982 13.9383 -0.0116243 14.2497 0.0725144 14.5463C0.156653 14.8429 0.305959 15.1172 0.50966 15.3494C0.713361 15.5817 0.966378 15.7661 1.25046 15.8893C1.53454 16.0126 1.84259 16.0716 2.1524 16.0622C2.46221 16.0527 2.76605 15.975 3.042 15.8347C3.31795 15.6944 3.55912 15.4949 3.74812 15.2507C5.28984 13.2602 6.35502 12.6113 7.91675 12.273C8.3172 13.718 8.18906 14.7889 7.11586 17.0102C6.95915 17.3276 6.88634 17.6795 6.9043 18.0327C6.92225 18.3858 7.03038 18.7286 7.21849 19.0287C7.4066 19.3288 7.66849 19.5763 7.97947 19.7479C8.29045 19.9195 8.64027 20.0096 8.99595 20.0096C9.35164 20.0096 9.70146 19.9195 10.0124 19.7479C10.3234 19.5763 10.5853 19.3288 10.7734 19.0287C10.9615 18.7286 11.0697 18.3858 11.0876 18.0327C11.1056 17.6795 11.0328 17.3276 10.876 17.0102C9.80685 14.7849 9.67471 13.718 10.0752 12.269C11.6369 12.6034 12.6981 13.2642 14.2478 15.2308C14.4121 15.4406 14.6161 15.6165 14.8485 15.7483C15.3223 15.9717 15.8634 16.0098 16.3642 15.8551C16.8651 15.7005 17.2892 15.3643 17.5523 14.9133C17.8154 14.4622 17.8984 13.9294 17.7848 13.4204C17.6711 12.9114 17.3691 12.4635 16.9388 12.1655L16.9548 12.1456Z" fill="#1F1E1D"/>
</g>
<defs>
<clipPath id="clip0_2244_5066">
<rect width="18" height="20" fill="white"/>
</clipPath>
</defs>
</svg>
