<svg width="10" height="14" viewBox="0 0 10 14" fill="none" xmlns="http://www.w3.org/2000/svg">
<g clip-path="url(#clip0_2233_4311)">
<path d="M9.68729 7.39143C6.58466 8.09803 5.76843 9.28746 5.2744 13.7508C5.2656 13.8165 5.23292 13.8768 5.18243 13.9204C5.13193 13.9641 5.06708 13.9882 4.99994 13.9882C4.9328 13.9882 4.86794 13.9641 4.81745 13.9204C4.76696 13.8768 4.73427 13.8165 4.72548 13.7508C4.23144 9.27569 3.40567 8.09803 0.312588 7.39143C0.224059 7.36983 0.145414 7.31959 0.0891996 7.24872C0.0329853 7.17785 0.00244141 7.09045 0.00244141 7.00045C0.00244141 6.91045 0.0329853 6.82305 0.0891996 6.75218C0.145414 6.68132 0.224059 6.63107 0.312588 6.60947C3.41521 5.90287 4.23144 4.72522 4.72548 0.250114C4.73427 0.184424 4.76696 0.124128 4.81745 0.0804517C4.86794 0.0367752 4.9328 0.0126953 4.99994 0.0126953C5.06708 0.0126953 5.13193 0.0367752 5.18243 0.0804517C5.23292 0.124128 5.2656 0.184424 5.2744 0.250114C5.76843 4.72522 6.59421 5.90287 9.68729 6.60947C9.77582 6.63107 9.85446 6.68132 9.91068 6.75218C9.96689 6.82305 9.99743 6.91045 9.99743 7.00045C9.99743 7.09045 9.96689 7.17785 9.91068 7.24872C9.85446 7.31959 9.77582 7.36983 9.68729 7.39143Z" fill="white"/>
</g>
<defs>
<clipPath id="clip0_2233_4311">
<rect width="10" height="14" fill="white"/>
</clipPath>
</defs>
</svg>
