<svg width="24" height="9" viewBox="0 0 24 9" fill="none" xmlns="http://www.w3.org/2000/svg">
<g clip-path="url(#clip0_2233_4492)">
<path d="M19.3605 0C16.7981 0 14.721 2.01472 14.721 4.5C14.721 6.98528 16.7981 9 19.3605 9C21.9228 9 24 6.98528 24 4.5C24 2.01472 21.9228 0 19.3605 0Z" fill="#1F1E1D"/>
<path d="M9.56502 0.92451C7.52919 0.92451 5.87883 2.52525 5.87883 4.49985C5.87883 6.47446 7.52919 8.0752 9.56502 8.0752C11.6009 8.0752 13.2512 6.47446 13.2512 4.49985C13.2512 2.52525 11.6009 0.92451 9.56502 0.92451Z" fill="#1F1E1D"/>
<path d="M2.20461 2.36213C0.987063 2.36213 4.43459e-05 3.31947 4.43459e-05 4.5004C4.43459e-05 5.68134 0.987063 6.63867 2.20461 6.63867C3.42216 6.63867 4.40918 5.68134 4.40918 4.5004C4.40918 3.31947 3.42216 2.36213 2.20461 2.36213Z" fill="#1F1E1D"/>
</g>
<defs>
<clipPath id="clip0_2233_4492">
<rect width="24" height="9" fill="white" transform="matrix(-1 0 0 -1 24 9)"/>
</clipPath>
</defs>
</svg>
