<svg width="30" height="30" viewBox="0 0 30 30" fill="none" xmlns="http://www.w3.org/2000/svg">
<g clip-path="url(#clip0_2232_4213)">
<path d="M21.3744 10.3997L23.436 8.33809C23.7607 8.01391 24.2006 7.83137 24.6595 7.83034H28.2626C28.7154 7.82557 29.1484 7.64357 29.4686 7.32337C29.7888 7.00317 29.9708 6.57026 29.9755 6.11746V1.73124C29.9756 1.27629 29.7965 0.839615 29.4771 0.515639C29.1577 0.191663 28.7237 0.00643032 28.2688 0L23.9009 0C23.4417 0 23.0014 0.182398 22.6767 0.507068C22.3521 0.831739 22.1697 1.27209 22.1697 1.73124V5.36501C22.1667 5.82349 21.9844 6.26261 21.6619 6.5885L19.6248 8.62561C19.2996 8.94924 18.8601 9.13167 18.4013 9.13336H11.6232C11.1643 9.13233 10.7244 8.9498 10.3997 8.62561L8.33809 6.55791C8.01334 6.23352 7.8307 5.79344 7.83034 5.33442V1.73124C7.83037 1.27525 7.65049 0.83766 7.32978 0.513512C7.00907 0.189364 6.57342 0.00483383 6.11745 0L1.73124 0C1.27209 0 0.831739 0.182398 0.507068 0.507068C0.182398 0.831739 0 1.27209 0 1.73124L0 6.11746C0 6.57661 0.182398 7.01696 0.507068 7.34163C0.831739 7.6663 1.27209 7.8487 1.73124 7.8487H5.36501C5.82349 7.8517 6.26261 8.03393 6.5885 8.35644L8.63173 10.3997C8.95648 10.7241 9.13912 11.1641 9.13948 11.6232V18.383C9.13912 18.842 8.95648 19.2821 8.63173 19.6064L6.57626 21.6619C6.25187 21.9867 5.81179 22.1693 5.35277 22.1697H1.73124C1.50389 22.1697 1.27877 22.2144 1.06872 22.3014C0.858679 22.3884 0.667829 22.516 0.507068 22.6767C0.346308 22.8375 0.218786 23.0283 0.131783 23.2384C0.0447798 23.4484 0 23.6735 0 23.9009L0 28.2688C0.00643031 28.7237 0.191663 29.1577 0.515639 29.4771C0.839615 29.7965 1.27629 29.9756 1.73124 29.9755H6.11745C6.57661 29.9755 7.01696 29.7931 7.34163 29.4685C7.6663 29.1438 7.84869 28.7034 7.84869 28.2443V24.6472C7.84906 24.1882 8.03169 23.7481 8.35644 23.4237L10.3997 21.3744C10.7241 21.0496 11.1641 20.867 11.6232 20.8666H18.3952C18.8539 20.8683 19.2935 21.0508 19.6187 21.3744L21.6558 23.4115C21.9805 23.7359 22.1632 24.176 22.1635 24.635V28.2688C22.17 28.7247 22.3561 29.1597 22.6814 29.4793C23.0066 29.7989 23.4449 29.9772 23.9009 29.9755H28.2688C28.7199 29.9708 29.1513 29.7894 29.4703 29.4704C29.7894 29.1513 29.9708 28.7199 29.9755 28.2688V23.9009C29.9755 23.4417 29.7931 23.0014 29.4685 22.6767C29.1438 22.3521 28.7034 22.1697 28.2443 22.1697H24.6656C24.2067 22.1686 23.7669 21.9861 23.4421 21.6619L21.3744 19.5759C21.0496 19.2515 20.867 18.8114 20.8666 18.3524V11.6232C20.8677 11.1643 21.0502 10.7244 21.3744 10.3997Z" fill="white"/>
</g>
<defs>
<clipPath id="clip0_2232_4213">
<rect width="30" height="30" fill="white"/>
</clipPath>
</defs>
</svg>
