<svg width="18" height="18" viewBox="0 0 18 18" fill="none" xmlns="http://www.w3.org/2000/svg">
<g clip-path="url(#clip0_48_2375)">
<path d="M1.92723 3.4294C2.22282 3.42527 2.51226 3.34253 2.76698 3.18935C4.6816 2.03621 8.73339 2.03621 10.648 3.18935C10.9031 3.34218 11.1933 3.4235 11.4891 3.42509C11.7849 3.42668 12.0759 3.34847 12.3326 3.19839C12.5893 3.0483 12.8026 2.83165 12.9509 2.57037C13.0993 2.30909 13.1774 2.01243 13.1774 1.71042C13.1774 1.40841 13.0993 1.11176 12.9509 0.850474C12.8026 0.58919 12.5893 0.372546 12.3326 0.222458C12.0759 0.07237 11.7849 -0.0058362 11.4891 -0.00424877C11.1933 -0.00266133 10.9031 0.0786634 10.648 0.231498C8.75018 1.3932 4.6984 1.3932 2.78377 0.240071C2.52905 0.0868895 2.23962 0.00414983 1.94402 1.42804e-05C1.49859 1.42804e-05 1.07141 0.180669 0.756439 0.502237C0.441473 0.823804 0.264526 1.25994 0.264526 1.71471C0.264526 2.16947 0.441473 2.60561 0.756439 2.92718C1.07141 3.24875 1.49859 3.4294 1.94402 3.4294H1.92723Z" fill="#1F1E1D"/>
<path d="M2.57034 8.15821C3.42944 7.7949 3.8374 6.78935 3.48155 5.91225C3.1257 5.03515 2.14079 4.61864 1.2817 4.98195C0.422601 5.34525 0.0146387 6.3508 0.370488 7.2279C0.726337 8.105 1.71125 8.52151 2.57034 8.15821Z" fill="#1F1E1D"/>
<path d="M2.57181 17.627C3.4309 17.2637 3.83886 16.2581 3.48302 15.381C3.12717 14.5039 2.14226 14.0874 1.28316 14.4507C0.424066 14.814 0.0161032 15.8196 0.371953 16.6967C0.727802 17.5738 1.71271 17.9903 2.57181 17.627Z" fill="#1F1E1D"/>
<path d="M16.3163 13.1431C17.2462 13.1431 18 12.3735 18 11.4241C18 10.4748 17.2462 9.70514 16.3163 9.70514C15.3864 9.70514 14.6326 10.4748 14.6326 11.4241C14.6326 12.3735 15.3864 13.1431 16.3163 13.1431Z" fill="#1F1E1D"/>
<path d="M16.3163 3.43796C17.2462 3.43796 18 2.66835 18 1.71898C18 0.769614 17.2462 0 16.3163 0C15.3864 0 14.6326 0.769614 14.6326 1.71898C14.6326 2.66835 15.3864 3.43796 16.3163 3.43796Z" fill="#1F1E1D"/>
<path d="M16.3163 5.09265C16.0207 5.09679 15.7313 5.17953 15.4766 5.33271C13.5619 6.48584 9.51014 6.48584 7.59552 5.33271C7.34038 5.17987 7.05023 5.09855 6.75442 5.09696C6.45862 5.09537 6.16765 5.17358 5.91095 5.32367C5.65425 5.47376 5.44094 5.6904 5.29258 5.95168C5.14423 6.21297 5.0661 6.50962 5.0661 6.81163C5.0661 7.11364 5.14423 7.4103 5.29258 7.67158C5.44094 7.93286 5.65425 8.14951 5.91095 8.2996C6.16765 8.44968 6.45862 8.52789 6.75442 8.5263C7.05023 8.52471 7.34038 8.44339 7.59552 8.29056C9.51014 7.13742 13.5619 7.13742 15.4766 8.29056C15.7313 8.44374 16.0207 8.52648 16.3163 8.53061C16.7617 8.53061 17.1889 8.34996 17.5039 8.02839C17.8189 7.70682 17.9958 7.27068 17.9958 6.81592C17.9958 6.36115 17.8189 5.92501 17.5039 5.60345C17.1889 5.28188 16.7617 5.10122 16.3163 5.10122V5.09265Z" fill="#1F1E1D"/>
<path d="M1.6795 13.1431C1.97543 13.1414 2.26548 13.0585 2.51924 12.9031C4.43387 11.7457 8.48565 11.7457 10.4003 12.9031C10.6546 13.0572 10.9443 13.14 11.24 13.1431C11.6855 13.1431 12.1126 12.9625 12.4276 12.6409C12.7426 12.3193 12.9195 11.8832 12.9195 11.4284C12.9195 10.9737 12.7426 10.5375 12.4276 10.216C12.1126 9.8944 11.6855 9.71375 11.24 9.71375C10.9439 9.71818 10.6542 9.80248 10.4003 9.95809C8.48565 11.1155 4.43387 11.1155 2.51924 9.95809C2.26581 9.80133 1.97579 9.71694 1.6795 9.71375C1.23407 9.71375 0.80688 9.8944 0.491913 10.216C0.176946 10.5375 0 10.9737 0 11.4284C0 11.8832 0.176946 12.3193 0.491913 12.6409C0.80688 12.9625 1.23407 13.1431 1.6795 13.1431Z" fill="#1F1E1D"/>
<path d="M16.077 14.5749C15.7806 14.5775 15.4904 14.6619 15.2372 14.8192C13.3226 15.9767 9.27081 15.9767 7.35619 14.8192C7.10227 14.6636 6.81256 14.5793 6.51644 14.5749C6.07101 14.5749 5.64382 14.7555 5.32886 15.0771C5.01389 15.3987 4.83694 15.8348 4.83694 16.2896C4.83694 16.7443 5.01389 17.1805 5.32886 17.5021C5.64382 17.8236 6.07101 18.0043 6.51644 18.0043C6.81256 17.9998 7.10227 17.9155 7.35619 17.7599C9.27081 16.6025 13.3226 16.6025 15.2372 17.7599C15.4904 17.9173 15.7806 18.0017 16.077 18.0043C16.5224 18.0043 16.9496 17.8236 17.2646 17.5021C17.5795 17.1805 17.7565 16.7443 17.7565 16.2896C17.7565 15.8348 17.5795 15.3987 17.2646 15.0771C16.9496 14.7555 16.5224 14.5749 16.077 14.5749Z" fill="#1F1E1D"/>
</g>
<defs>
<clipPath id="clip0_48_2375">
<rect width="18" height="18" fill="white"/>
</clipPath>
</defs>
</svg>
