<svg width="29" height="18" viewBox="0 0 29 18" fill="none" xmlns="http://www.w3.org/2000/svg">
<g clip-path="url(#clip0_2233_4605)">
<path d="M15.3309 10.5049C10.5388 9.4189 8.68295 7.62669 7.43767 2.86371C7.27296 2.20982 6.93779 1.61188 6.46667 1.13151C5.99555 0.651138 5.40553 0.305695 4.75739 0.13077C4.10924 -0.0441544 3.42642 -0.0422353 2.77926 0.13633C2.1321 0.314895 1.54401 0.66365 1.07557 1.14666C0.607136 1.62968 0.275291 2.22948 0.114227 2.88429C-0.0468374 3.5391 -0.0312967 4.22522 0.159248 4.87198C0.349792 5.51874 0.708451 6.10275 1.19827 6.56384C1.68809 7.02493 2.29137 7.34642 2.94594 7.4952C7.75262 8.58124 9.59389 10.3734 10.8392 15.1364C11.0039 15.7903 11.3391 16.3883 11.8102 16.8686C12.2813 17.349 12.8713 17.6944 13.5195 17.8694C14.1676 18.0443 14.8504 18.0424 15.4976 17.8638C16.1447 17.6852 16.7328 17.3365 17.2013 16.8535C17.6697 16.3705 18.0016 15.7707 18.1626 15.1158C18.3237 14.461 18.3081 13.7749 18.1176 13.1282C17.9271 12.4814 17.5684 11.8974 17.0786 11.4363C16.5887 10.9752 15.9855 10.6537 15.3309 10.5049Z" fill="#1F1E1D"/>
<path d="M26.0539 10.5051C21.2665 9.41909 19.4107 7.62688 18.1606 2.86389C17.9961 2.20968 17.6609 1.61143 17.1896 1.13081C16.7183 0.650194 16.1281 0.304608 15.4796 0.129684C14.8312 -0.0452394 14.1481 -0.0431695 13.5007 0.135681C12.8534 0.314531 12.2652 0.663688 11.7968 1.14715C11.3284 1.63062 10.9968 2.23089 10.8362 2.88609C10.6756 3.54128 10.6917 4.22769 10.8829 4.87453C11.0742 5.52136 11.4336 6.10523 11.9242 6.56592C12.4147 7.02662 13.0187 7.34747 13.6737 7.49539C18.461 8.58143 20.3168 10.3736 21.567 15.1366C21.7315 15.7908 22.0667 16.3891 22.538 16.8697C23.0092 17.3503 23.5995 17.6959 24.2479 17.8708C24.8964 18.0458 25.5795 18.0437 26.2269 17.8648C26.8742 17.686 27.4624 17.3368 27.9308 16.8534C28.3991 16.3699 28.7307 15.7696 28.8914 15.1144C29.052 14.4592 29.0359 13.7728 28.8446 13.126C28.6534 12.4792 28.294 11.8953 27.8034 11.4346C27.3128 10.9739 26.7089 10.653 26.0539 10.5051Z" fill="#1F1E1D"/>
</g>
<defs>
<clipPath id="clip0_2233_4605">
<rect width="29" height="18" fill="white"/>
</clipPath>
</defs>
</svg>
