<?xml version="1.0" encoding="UTF-8"?>
<svg id="Layer_1" data-name="Layer 1" xmlns="http://www.w3.org/2000/svg" viewBox="0 0 736.7 205.37">
  <defs>
    <style>
      .cls-1 {
        fill: #231f20;
      }
    </style>
  </defs>
  <g>
    <path class="cls-1" d="M202.26,61.31V29.02h32.29v32.29h-32.29ZM202.26,189.38v-117.52h32.29v117.52h-32.29Z"/>
    <path class="cls-1" d="M258.22,189.38V26.44h32.29v162.94h-32.29Z"/>
    <path class="cls-1" d="M314.18,189.38V26.44h32.29v162.94h-32.29Z"/>
    <path class="cls-1" d="M427.83,191.96c-11.77,0-22.35-2.69-31.75-8.07-9.4-5.38-16.86-12.73-22.39-22.06-5.53-9.33-8.29-19.8-8.29-31.43s2.72-22.06,8.18-31.32c5.45-9.25,12.92-16.54,22.39-21.85,9.47-5.31,20.09-7.96,31.86-7.96,8.75,0,16.86,1.51,24.32,4.52,7.46,3.01,13.85,7.21,19.16,12.59,5.31,5.38,9.11,11.73,11.41,19.05l-27.98,12.05c-2.01-5.88-5.42-10.55-10.22-13.99-4.81-3.44-10.37-5.17-16.68-5.17-5.6,0-10.58,1.37-14.96,4.09-4.38,2.73-7.82,6.53-10.33,11.41-2.51,4.88-3.77,10.48-3.77,16.79s1.25,11.91,3.77,16.79c2.51,4.88,5.95,8.68,10.33,11.41,4.38,2.73,9.36,4.09,14.96,4.09,6.46,0,12.05-1.72,16.79-5.17,4.74-3.44,8.11-8.11,10.12-13.99l27.98,12.27c-2.15,6.89-5.88,13.06-11.19,18.51-5.31,5.46-11.7,9.72-19.16,12.81-7.46,3.08-15.64,4.63-24.54,4.63Z"/>
    <path class="cls-1" d="M538.03,191.96c-8.47,0-15.79-1.37-21.96-4.09-6.17-2.72-10.91-6.64-14.21-11.73-3.3-5.09-4.95-11.16-4.95-18.19,0-6.6,1.51-12.45,4.52-17.54,3.01-5.09,7.64-9.36,13.88-12.81,6.24-3.44,14.02-5.88,23.35-7.32l35.95-5.81v23.68l-30.13,5.38c-4.59.86-8.11,2.33-10.55,4.41-2.44,2.08-3.66,5.06-3.66,8.93,0,3.59,1.36,6.39,4.09,8.39,2.72,2.01,6.1,3.01,10.12,3.01,5.31,0,9.97-1.15,13.99-3.44,4.02-2.29,7.14-5.41,9.36-9.36,2.22-3.95,3.34-8.29,3.34-13.02v-30.56c0-4.45-1.76-8.18-5.27-11.19-3.52-3.01-8.29-4.52-14.31-4.52s-10.8,1.58-15.17,4.74c-4.38,3.16-7.57,7.32-9.58,12.48l-25.83-12.27c2.29-6.6,5.95-12.27,10.98-17,5.02-4.74,11.05-8.39,18.08-10.98,7.03-2.58,14.71-3.87,23.03-3.87,9.9,0,18.65,1.8,26.26,5.38,7.6,3.59,13.52,8.58,17.76,14.96,4.23,6.39,6.35,13.81,6.35,22.28v77.49h-30.13v-18.94l7.32-1.29c-3.44,5.17-7.25,9.44-11.41,12.81-4.16,3.37-8.83,5.89-13.99,7.53-5.17,1.65-10.91,2.48-17.22,2.48Z"/>
    <path class="cls-1" d="M627.14,189.38V26.44h32.29v162.94h-32.29Z"/>
    <path class="cls-1" d="M683.1,189.38V26.44h32.29v162.94h-32.29Z"/>
  </g>
  <g>
    <path class="cls-1" d="M82.37,128.19c-2.52,5.06-5.31,10.39-8.48,16.03l-32.77-70.34c-3.31-7.1-11.74-10.18-18.86-6.87-7.11,3.31-10.18,11.75-6.88,18.86l44,94.45c2.18,4.68,6.73,7.8,11.88,8.17,5.12.34,10.09-2.11,12.89-6.44,5.39-8.31,9.98-15.82,13.95-22.68-2.97-5.62-9.81-18.7-15.74-31.18Z"/>
    <path class="cls-1" d="M178.3,66.97c-7.12-3.21-15.55-.04-18.76,7.11l-31.75,70.49c-1.71-2.88-3.32-5.68-4.88-8.44-9.25-14.82-16.87-26.16-18.2-28.52-4.31-7.59-1.42-10.98-1.42-10.84,0,1.07,2.41,5.95,3.75,8.17,2.3,3.8,3.81,5.65,9.86,14.88,6.28-18.97,2.76-25.83,1.09-28.89-3.47-6.39-9.89-10.06-17.59-10.07h-.01c-8,0-14.59,3.79-18.08,10.4-1.65,3.13-5.14,10.12,1.48,28.97,7.08,15.33,17,34.24,19.55,39.06,4.22,6.95,9.13,14.58,14.91,23.03,2.66,3.89,7.05,6.18,11.71,6.18.42,0,.83-.02,1.25-.05,5.11-.45,9.58-3.63,11.68-8.31l42.52-94.41c3.22-7.15.04-15.55-7.11-18.77Z"/>
  </g>
</svg>